<svg width="101" height="109" viewBox="0 0 101 109" fill="none" xmlns="http://www.w3.org/2000/svg">
<path d="M2.44318 78.4545H7.35795L9.375 86.6932H9.54545L14.2898 78.4545H19.2045L16.7898 93H12.9261L14.3182 84.5909H14.2045L9.60227 92.8864H7.27273L5.42614 84.5341H5.3125L3.89205 93H0.0284091L2.44318 78.4545ZM18.8385 81.6364L19.3783 78.4545H32.0203L31.4805 81.6364H27.1055L25.2305 93H21.3385L23.2135 81.6364H18.8385ZM29.7917 93L32.2065 78.4545H38.5133C39.6212 78.4545 40.528 78.6037 41.2335 78.902C41.9437 79.2003 42.4456 79.6217 42.7391 80.1662C43.0374 80.7107 43.125 81.3523 43.0019 82.0909C42.9072 82.6212 42.7036 83.1065 42.3911 83.5469C42.0834 83.9825 41.6927 84.3518 41.2192 84.6548C40.7505 84.9531 40.2273 85.1591 39.6496 85.2727L39.6212 85.4148C40.2462 85.4337 40.7907 85.59 41.2548 85.8835C41.7188 86.1723 42.0597 86.5748 42.2775 87.0909C42.4953 87.6023 42.5474 88.1989 42.4337 88.8807C42.3012 89.6761 41.9768 90.384 41.4607 91.0043C40.9446 91.6245 40.2746 92.1122 39.4508 92.4673C38.6269 92.8224 37.6894 93 36.6383 93H29.7917ZM34.2803 89.8466H36.1269C36.7803 89.8466 37.2941 89.7211 37.6681 89.4702C38.0469 89.2192 38.2718 88.8523 38.3428 88.3693C38.3996 88.0284 38.3712 87.7396 38.2576 87.5028C38.144 87.2661 37.9522 87.0862 37.6823 86.9631C37.4124 86.84 37.0739 86.7784 36.6667 86.7784H34.7633L34.2803 89.8466ZM35.1894 84.3352H36.8087C37.1496 84.3352 37.4621 84.2808 37.7462 84.1719C38.0303 84.063 38.2647 83.9044 38.4494 83.696C38.634 83.4877 38.75 83.2367 38.7974 82.9432C38.8684 82.4886 38.7595 82.143 38.4707 81.9062C38.1866 81.6695 37.8031 81.5511 37.3201 81.5511H35.644L35.1894 84.3352ZM46.9502 78.4545H51.865L53.882 86.6932H54.0525L58.7968 78.4545H63.7116L61.2968 93H57.4332L58.8252 84.5909H58.7116L54.1093 92.8864H51.7798L49.9332 84.5341H49.8195L48.3991 93H44.5354L46.9502 78.4545ZM64.9364 93.1705C64.2451 93.1705 63.6509 93.0568 63.1538 92.8295C62.6613 92.5975 62.3015 92.2472 62.0742 91.7784C61.8517 91.3049 61.802 90.7083 61.9251 89.9886C62.0245 89.392 62.2115 88.883 62.4862 88.4616C62.7608 88.0402 63.1017 87.6946 63.5089 87.4247C63.9161 87.1548 64.373 86.9489 64.8796 86.8068C65.391 86.66 65.9308 86.5653 66.4989 86.5227C67.1145 86.4754 67.614 86.4162 67.9975 86.3452C68.381 86.2741 68.6675 86.1771 68.8569 86.054C69.0463 85.9309 69.1599 85.7652 69.1978 85.5568V85.5284C69.2404 85.2443 69.1647 85.0265 68.9705 84.875C68.7811 84.7235 68.516 84.6477 68.1751 84.6477C67.8058 84.6477 67.4862 84.7282 67.2163 84.8892C66.9511 85.0502 66.7688 85.3011 66.6694 85.642H63.0614C63.2129 84.9792 63.5231 84.3684 63.9918 83.8097C64.4653 83.2462 65.0927 82.7964 65.8739 82.4602C66.6599 82.1193 67.5974 81.9489 68.6864 81.9489C69.4629 81.9489 70.1448 82.0412 70.7319 82.2259C71.319 82.4058 71.8043 82.6591 72.1879 82.9858C72.5761 83.3078 72.8484 83.6866 73.0046 84.1222C73.1656 84.553 73.2035 85.0218 73.1183 85.5284L71.8683 93H68.2035L68.4592 91.4659H68.3739C68.0898 91.8731 67.7702 92.2022 67.4151 92.4531C67.0647 92.7041 66.6812 92.8864 66.2646 93C65.8526 93.1136 65.4099 93.1705 64.9364 93.1705ZM66.641 90.6989C66.9345 90.6989 67.2234 90.6373 67.5075 90.5142C67.7915 90.3911 68.0354 90.2135 68.239 89.9815C68.4426 89.7495 68.5728 89.4678 68.6296 89.1364L68.7717 88.2273C68.6675 88.2699 68.5515 88.3101 68.4237 88.348C68.3005 88.3812 68.1703 88.4143 68.033 88.4474C67.9004 88.4806 67.7584 88.5114 67.6069 88.5398C67.4601 88.5682 67.3086 88.5966 67.1523 88.625C66.8398 88.6723 66.5771 88.7505 66.364 88.8594C66.1509 88.9635 65.9852 89.0938 65.8668 89.25C65.7485 89.4015 65.6751 89.572 65.6467 89.7614C65.604 90.0597 65.6727 90.2917 65.8526 90.4574C66.0373 90.6184 66.3001 90.6989 66.641 90.6989ZM77.4131 86.8636L76.3903 93H72.4699L74.2881 82.0909H78.0097L77.6687 84.1648H77.7824C78.128 83.4687 78.6323 82.9266 79.2952 82.5384C79.9628 82.1454 80.6991 81.9489 81.504 81.9489C82.2758 81.9489 82.9173 82.1241 83.4287 82.4744C83.9401 82.8248 84.3023 83.3078 84.5153 83.9233C84.7284 84.5388 84.7663 85.2443 84.629 86.0398L83.4642 93H79.5437L80.5665 86.8636C80.6564 86.3239 80.5901 85.9001 80.3676 85.5923C80.1498 85.2846 79.79 85.1307 79.2881 85.1307C78.9708 85.1307 78.6796 85.2017 78.4145 85.3438C78.1541 85.4811 77.9363 85.6799 77.7611 85.9403C77.5906 86.196 77.4746 86.5038 77.4131 86.8636ZM84.0712 93L85.8893 82.0909H89.8098L87.9916 93H84.0712ZM88.02 80.9545C87.4897 80.9545 87.0612 80.7794 86.7345 80.429C86.4078 80.0739 86.2871 79.6525 86.3723 79.1648C86.4575 78.6676 86.7179 78.2462 87.1536 77.9006C87.5892 77.5502 88.0721 77.375 88.6024 77.375C89.1375 77.375 89.5636 77.5502 89.8808 77.9006C90.1981 78.2462 90.3164 78.6676 90.2359 79.1648C90.1602 79.6525 89.9045 80.0739 89.4689 80.429C89.038 80.7794 88.5551 80.9545 88.02 80.9545ZM91.7005 93.1705C91.0092 93.1705 90.415 93.0568 89.9178 92.8295C89.4254 92.5975 89.0656 92.2472 88.8383 91.7784C88.6157 91.3049 88.566 90.7083 88.6891 89.9886C88.7886 89.392 88.9756 88.883 89.2502 88.4616C89.5248 88.0402 89.8657 87.6946 90.2729 87.4247C90.6801 87.1548 91.137 86.9489 91.6437 86.8068C92.155 86.66 92.6948 86.5653 93.263 86.5227C93.8785 86.4754 94.3781 86.4162 94.7616 86.3452C95.1451 86.2741 95.4316 86.1771 95.621 86.054C95.8103 85.9309 95.924 85.7652 95.9619 85.5568V85.5284C96.0045 85.2443 95.9287 85.0265 95.7346 84.875C95.5452 84.7235 95.28 84.6477 94.9391 84.6477C94.5698 84.6477 94.2502 84.7282 93.9803 84.8892C93.7152 85.0502 93.5329 85.3011 93.4335 85.642H89.8255C89.977 84.9792 90.2871 84.3684 90.7559 83.8097C91.2294 83.2462 91.8567 82.7964 92.638 82.4602C93.424 82.1193 94.3615 81.9489 95.4505 81.9489C96.227 81.9489 96.9088 82.0412 97.496 82.2259C98.0831 82.4058 98.5684 82.6591 98.9519 82.9858C99.3402 83.3078 99.6124 83.6866 99.7687 84.1222C99.9297 84.553 99.9675 85.0218 99.8823 85.5284L98.6323 93H94.9675L95.2232 91.4659H95.138C94.8539 91.8731 94.5343 92.2022 94.1792 92.4531C93.8288 92.7041 93.4453 92.8864 93.0286 93C92.6167 93.1136 92.174 93.1705 91.7005 93.1705ZM93.405 90.6989C93.6986 90.6989 93.9874 90.6373 94.2715 90.5142C94.5556 90.3911 94.7995 90.2135 95.0031 89.9815C95.2067 89.7495 95.3369 89.4678 95.3937 89.1364L95.5357 88.2273C95.4316 88.2699 95.3156 88.3101 95.1877 88.348C95.0646 88.3812 94.9344 88.4143 94.7971 88.4474C94.6645 88.4806 94.5225 88.5114 94.371 88.5398C94.2242 88.5682 94.0727 88.5966 93.9164 88.625C93.6039 88.6723 93.3411 88.7505 93.1281 88.8594C92.915 88.9635 92.7493 89.0938 92.6309 89.25C92.5125 89.4015 92.4391 89.572 92.4107 89.7614C92.3681 90.0597 92.4368 90.2917 92.6167 90.4574C92.8013 90.6184 93.0641 90.6989 93.405 90.6989Z" fill="black"/>
<path d="M27.6506 100.312L27.3366 102.233H22.9048L23.2188 100.312H27.6506ZM32.8093 96.5455H35.3391L34.2681 103.027C34.1635 103.643 33.9203 104.184 33.5387 104.652C33.1571 105.117 32.6754 105.48 32.0937 105.741C31.5121 106 30.8704 106.129 30.1687 106.129C29.5655 106.129 29.0299 106.025 28.5621 105.815C28.0974 105.603 27.7527 105.271 27.528 104.818C27.3065 104.363 27.2572 103.772 27.3803 103.045H29.9471C29.9163 103.286 29.9225 103.487 29.9655 103.65C30.0086 103.81 30.0887 103.932 30.2056 104.015C30.3226 104.095 30.4764 104.135 30.6673 104.135C30.8581 104.135 31.0258 104.093 31.1704 104.01C31.3151 103.924 31.4351 103.799 31.5305 103.636C31.6259 103.47 31.6952 103.267 31.7383 103.027L32.8093 96.5455ZM36.1353 106.111C35.6859 106.111 35.2997 106.037 34.9765 105.889C34.6565 105.738 34.4226 105.511 34.2748 105.206C34.1302 104.898 34.0979 104.51 34.1779 104.043C34.2425 103.655 34.3641 103.324 34.5426 103.05C34.7211 102.776 34.9427 102.551 35.2074 102.376C35.472 102.201 35.769 102.067 36.0984 101.974C36.4307 101.879 36.7816 101.817 37.1509 101.79C37.551 101.759 37.8757 101.721 38.125 101.674C38.3743 101.628 38.5605 101.565 38.6836 101.485C38.8067 101.405 38.8805 101.297 38.9052 101.162V101.143C38.9329 100.959 38.8836 100.817 38.7574 100.719C38.6343 100.62 38.462 100.571 38.2404 100.571C38.0003 100.571 37.7926 100.623 37.6172 100.728C37.4448 100.833 37.3263 100.996 37.2617 101.217H34.9165C35.015 100.786 35.2166 100.389 35.5213 100.026C35.8291 99.66 36.2368 99.3677 36.7447 99.1491C37.2555 98.9276 37.8649 98.8168 38.5728 98.8168C39.0775 98.8168 39.5207 98.8768 39.9023 98.9968C40.284 99.1138 40.5994 99.2784 40.8487 99.4908C41.1011 99.7 41.278 99.9463 41.3796 100.229C41.4842 100.509 41.5089 100.814 41.4535 101.143L40.641 106H38.2589L38.4251 105.003H38.3697C38.185 105.268 37.9773 105.481 37.7464 105.645C37.5187 105.808 37.2694 105.926 36.9986 106C36.7308 106.074 36.443 106.111 36.1353 106.111ZM37.2432 104.504C37.4341 104.504 37.6218 104.464 37.8064 104.384C37.9911 104.304 38.1496 104.189 38.2819 104.038C38.4143 103.887 38.4989 103.704 38.5359 103.489L38.6282 102.898C38.5605 102.925 38.4851 102.952 38.402 102.976C38.322 102.998 38.2373 103.019 38.1481 103.041C38.0619 103.062 37.9696 103.082 37.8711 103.101C37.7757 103.119 37.6772 103.138 37.5756 103.156C37.3725 103.187 37.2017 103.238 37.0632 103.309C36.9247 103.376 36.817 103.461 36.74 103.562C36.6631 103.661 36.6154 103.772 36.5969 103.895C36.5692 104.089 36.6139 104.24 36.7308 104.347C36.8508 104.452 37.0216 104.504 37.2432 104.504ZM43.5803 104.32L44.0974 101.291H44.4298L46.5533 98.9091H49.4156L45.9255 102.621H45.2053L43.5803 104.32ZM41.0136 106L42.5832 96.5455H45.1315L43.5619 106H41.0136ZM45.39 106L44.2266 103.193L46.2025 101.384L48.3076 106H45.39ZM50.0097 106.111C49.5604 106.111 49.1742 106.037 48.851 105.889C48.5309 105.738 48.297 105.511 48.1493 105.206C48.0046 104.898 47.9723 104.51 48.0523 104.043C48.117 103.655 48.2385 103.324 48.4171 103.05C48.5956 102.776 48.8171 102.551 49.0818 102.376C49.3465 102.201 49.6435 102.067 49.9728 101.974C50.3052 101.879 50.656 101.817 51.0254 101.79C51.4255 101.759 51.7501 101.721 51.9994 101.674C52.2487 101.628 52.4349 101.565 52.558 101.485C52.6811 101.405 52.755 101.297 52.7796 101.162V101.143C52.8073 100.959 52.7581 100.817 52.6319 100.719C52.5088 100.62 52.3364 100.571 52.1148 100.571C51.8748 100.571 51.6671 100.623 51.4916 100.728C51.3193 100.833 51.2008 100.996 51.1362 101.217H48.791C48.8895 100.786 49.0911 100.389 49.3957 100.026C49.7035 99.66 50.1113 99.3677 50.6191 99.1491C51.13 98.9276 51.7394 98.8168 52.4472 98.8168C52.952 98.8168 53.3952 98.8768 53.7768 98.9968C54.1584 99.1138 54.4739 99.2784 54.7232 99.4908C54.9755 99.7 55.1525 99.9463 55.2541 100.229C55.3587 100.509 55.3833 100.814 55.3279 101.143L54.5154 106H52.1333L52.2995 105.003H52.2441C52.0595 105.268 51.8517 105.481 51.6209 105.645C51.3931 105.808 51.1439 105.926 50.873 106C50.6053 106.074 50.3175 106.111 50.0097 106.111ZM51.1177 104.504C51.3085 104.504 51.4962 104.464 51.6809 104.384C51.8656 104.304 52.0241 104.189 52.1564 104.038C52.2887 103.887 52.3734 103.704 52.4103 103.489L52.5026 102.898C52.4349 102.925 52.3595 102.952 52.2764 102.976C52.1964 102.998 52.1118 103.019 52.0225 103.041C51.9363 103.062 51.844 103.082 51.7455 103.101C51.6501 103.119 51.5516 103.138 51.4501 103.156C51.247 103.187 51.0761 103.238 50.9376 103.309C50.7992 103.376 50.6914 103.461 50.6145 103.562C50.5376 103.661 50.4898 103.772 50.4714 103.895C50.4437 104.089 50.4883 104.24 50.6053 104.347C50.7253 104.452 50.8961 104.504 51.1177 104.504ZM54.888 106L56.0698 98.9091H58.5443L58.3227 100.257H58.3965C58.6089 99.7585 58.8751 99.3938 59.1952 99.163C59.5153 98.9322 59.8646 98.8168 60.2431 98.8168C60.3539 98.8168 60.4601 98.826 60.5617 98.8445C60.6663 98.8598 60.7694 98.8814 60.871 98.9091L60.5017 101.088C60.3816 101.042 60.2324 101.01 60.0539 100.991C59.8754 100.97 59.7169 100.959 59.5784 100.959C59.3321 100.959 59.1013 101.016 58.8859 101.13C58.6735 101.24 58.4919 101.397 58.3411 101.6C58.1934 101.801 58.0949 102.036 58.0457 102.307L57.4363 106H54.888ZM65.3822 98.9091L65.0683 100.756H60.3964L60.7104 98.9091H65.3822ZM61.8922 97.2102H64.4405L63.3602 103.719C63.3448 103.818 63.3479 103.901 63.3695 103.969C63.391 104.033 63.4341 104.083 63.4987 104.116C63.5664 104.147 63.6557 104.163 63.7665 104.163C63.8403 104.163 63.9311 104.153 64.0388 104.135C64.1466 104.113 64.2281 104.098 64.2835 104.089L64.3574 105.88C64.2281 105.917 64.0542 105.958 63.8357 106.005C63.6203 106.054 63.3695 106.086 63.0832 106.102C62.4862 106.129 61.9999 106.066 61.6244 105.912C61.252 105.758 60.9935 105.518 60.8489 105.192C60.7073 104.863 60.6827 104.452 60.775 103.96L61.8922 97.2102ZM66.3527 106.111C65.9033 106.111 65.5171 106.037 65.1939 105.889C64.8739 105.738 64.64 105.511 64.4922 105.206C64.3476 104.898 64.3153 104.51 64.3953 104.043C64.4599 103.655 64.5815 103.324 64.76 103.05C64.9385 102.776 65.1601 102.551 65.4248 102.376C65.6894 102.201 65.9864 102.067 66.3157 101.974C66.6481 101.879 66.999 101.817 67.3683 101.79C67.7684 101.759 68.0931 101.721 68.3424 101.674C68.5917 101.628 68.7779 101.565 68.901 101.485C69.0241 101.405 69.0979 101.297 69.1226 101.162V101.143C69.1503 100.959 69.101 100.817 68.9748 100.719C68.8517 100.62 68.6794 100.571 68.4578 100.571C68.2177 100.571 68.01 100.623 67.8346 100.728C67.6622 100.833 67.5437 100.996 67.4791 101.217H65.1339C65.2324 100.786 65.434 100.389 65.7387 100.026C66.0464 99.66 66.4542 99.3677 66.962 99.1491C67.4729 98.9276 68.0823 98.8168 68.7902 98.8168C69.2949 98.8168 69.7381 98.8768 70.1197 98.9968C70.5013 99.1138 70.8168 99.2784 71.0661 99.4908C71.3185 99.7 71.4954 99.9463 71.597 100.229C71.7016 100.509 71.7262 100.814 71.6708 101.143L70.8583 106H68.4762L68.6424 105.003H68.587C68.4024 105.268 68.1946 105.481 67.9638 105.645C67.7361 105.808 67.4868 105.926 67.2159 106C66.9482 106.074 66.6604 106.111 66.3527 106.111ZM67.4606 104.504C67.6514 104.504 67.8392 104.464 68.0238 104.384C68.2085 104.304 68.367 104.189 68.4993 104.038C68.6317 103.887 68.7163 103.704 68.7532 103.489L68.8456 102.898C68.7779 102.925 68.7025 102.952 68.6194 102.976C68.5393 102.998 68.4547 103.019 68.3655 103.041C68.2793 103.062 68.1869 103.082 68.0885 103.101C67.9931 103.119 67.8946 103.138 67.793 103.156C67.5899 103.187 67.4191 103.238 67.2806 103.309C67.1421 103.376 67.0344 103.461 66.9574 103.562C66.8805 103.661 66.8328 103.772 66.8143 103.895C66.7866 104.089 66.8312 104.24 66.9482 104.347C67.0682 104.452 67.239 104.504 67.4606 104.504ZM76.6692 101.273L76.3552 103.193H71.9234L72.2373 101.273H76.6692Z" fill="black"/>
<path d="M58.9166 25.25L43.1353 46.2917L55.1291 62.2833L48.3958 67.3333C41.2837 57.8646 29.4583 42.0833 29.4583 42.0833L4.20825 75.75H96.7916L58.9166 25.25Z" fill="#0B642D"/>
</svg>
